<svg xmlns="http://www.w3.org/2000/svg" width="1400" height="1210" viewBox="0 0 1400 1210" role="img" aria-label="Frozen checkpoint: two methods, two outcomes, one targeted ablation"><defs><marker id="arrow" viewBox="0 0 10 10" refX="9" refY="5" markerWidth="7" markerHeight="7" orient="auto-start-reverse"><path d="M0 0 L10 5 L0 10 Z" fill="#47687d"/></marker></defs><style>text{font-family:Arial,Helvetica,sans-serif;fill:#18364c}.title{font-size:29px;font-weight:700}.sub{font-size:18px;fill:#526b7c}.head{font-size:23px;font-weight:700}.body{font-size:19px}.tag{font-size:16px;font-weight:700;fill:#047e87}.link{fill:none;stroke:#47687d;stroke-width:2.5;marker-end:url(#arrow)}</style><rect width="1400" height="1210" fill="#f8fbfd"/><text class="title" x="45" y="55">Frozen checkpoint: two methods, two outcomes, one targeted ablation</text><text class="sub" x="45" y="88">Target: 120 decision checkpoints, 30 per station; preserve recording and participant provenance.</text><g><rect x="45" y="115" width="1310" height="175" rx="16" fill="#eef5fa" stroke="#57809d" stroke-width="1.5"/><rect x="45" y="115" width="6" height="175" rx="3" fill="#57809d"/><text class="head" x="67" y="153">1 · Freeze the shared input and independent reference</text><text class="body" x="67" y="189">Station / knowledge / model versions · delivered history through the cutoff · source spans and event order</text><text class="body" x="67" y="217">Faculty reference: applicable role requirements and current assessment decision at that same cutoff</text><text class="body" x="67" y="245">Keep the reference out of both model inputs. Future answers or corrections are not visible.</text></g><path class="link" d="M700 290 V310 H362 V330"/><path class="link" d="M700 310 H1038 V330"/><g><rect x="45" y="330" width="635" height="200" rx="16" fill="#eef5fa" stroke="#57809d" stroke-width="1.5"/><rect x="45" y="330" width="6" height="200" rx="3" fill="#57809d"/><text class="head" x="67" y="368">2A · First next-role reply</text><text class="body" x="67" y="404">A conventional + RAG and B DualGraph-OSCE</text><text class="body" x="67" y="432">Both start from the same frozen prefix and state.</text><text class="body" x="67" y="460">Save the first-run finalized reply and failures.</text><text class="body" x="67" y="488">Blind method labels for faculty review.</text></g><g><rect x="720" y="330" width="635" height="200" rx="16" fill="#eef5fa" stroke="#57809d" stroke-width="1.5"/><rect x="720" y="330" width="6" height="200" rx="3" fill="#57809d"/><text class="head" x="742" y="368">2B · Current assessment decision</text><text class="body" x="742" y="404">Use the same prefix and cutoff in both methods.</text><text class="body" x="742" y="432">Check state and all applicable consequences,</text><text class="body" x="742" y="460">correction history and review-reason sets.</text><text class="body" x="742" y="488">Final omissions require a closed deadline.</text></g><path class="link" d="M362 530 V565"/><path class="link" d="M1038 530 V565"/><g><rect x="45" y="565" width="635" height="165" rx="16" fill="#eef9f7" stroke="#178a87" stroke-width="1.5"/><rect x="45" y="565" width="6" height="165" rx="3" fill="#178a87"/><text class="head" x="67" y="603">3A · Role compliance = 0 or 1</text><text class="body" x="67" y="639">Valid reply + every applicable requirement passes.</text><text class="body" x="67" y="667">Five categories explain the observed failures.</text><text class="body" x="67" y="695">Do not select a better second attempt.</text></g><g><rect x="720" y="565" width="635" height="165" rx="16" fill="#f3f0fb" stroke="#8164b2" stroke-width="1.5"/><rect x="720" y="565" width="6" height="165" rx="3" fill="#8164b2"/><text class="head" x="742" y="603">3B · Assessment exact match = 0 or 1</text><text class="body" x="742" y="639">State and every applicable field equal the reference.</text><text class="body" x="742" y="667">An omitted required cap makes the decision incorrect.</text><text class="body" x="742" y="695">Cache B evidence and rules with their versions.</text></g><path class="link" d="M362 730 V770"/><path class="link" d="M1038 730 V770"/><g><rect x="45" y="770" width="635" height="190" rx="16" fill="#eef5fa" stroke="#57809d" stroke-width="1.5"/><rect x="45" y="770" width="6" height="190" rx="3" fill="#57809d"/><text class="head" x="67" y="808">4 · Paired primary comparison</text><text class="body" x="67" y="844">Same checkpoint, A versus B; two separate endpoints.</text><text class="body" x="67" y="872">Report all eligible checkpoints and failures.</text><text class="body" x="67" y="900">Estimate differences and source-cluster uncertainty.</text><text class="body" x="67" y="928">Repeats and derived variants do not create new students.</text></g><g><rect x="720" y="770" width="635" height="190" rx="16" fill="#fff8ee" stroke="#c69145" stroke-width="1.5"/><rect x="720" y="770" width="6" height="190" rx="3" fill="#c69145"/><text class="head" x="742" y="808">5 · Cached-graph ablation</text><text class="body" x="742" y="844">Replay FULL and verify the original rule decision.</text><text class="body" x="742" y="872">Replay UNLINKED: block only role intervention</text><text class="body" x="742" y="900">→ linked assessment consequence. No re-extraction.</text><text class="body" x="742" y="928">Keep negative controls and non-target checks.</text></g><g><rect x="45" y="1000" width="1310" height="145" rx="16" fill="#eef5fa" stroke="#57809d" stroke-width="1.5"/><rect x="45" y="1000" width="6" height="145" rx="3" fill="#57809d"/><text class="head" x="67" y="1038">6 · Natural-use evidence is reported separately</text><text class="body" x="67" y="1074">Students consult freely from the station brief; they do not perform a benchmark script or ablation.</text><text class="body" x="67" y="1102">Planned source: 16 live consultation recordings. Verify eligibility, completeness and consent.</text><text class="body" x="67" y="1130">Experience feedback describes usability; it does not replace faculty accuracy or role judgments.</text></g><text class="sub" x="45" y="1185">Protocol diagram, not a result. The technical target is not 120 independent consultations.</text></svg>